<?xml version="1.0" standalone="no"?><!DOCTYPE svg PUBLIC "-//W3C//DTD SVG 1.1//EN" "http://www.w3.org/Graphics/SVG/1.1/DTD/svg11.dtd"><svg t="1619697778872" class="icon" viewBox="0 0 1024 1024" version="1.1" xmlns="http://www.w3.org/2000/svg" p-id="1538" width="20" height="20" xmlns:xlink="http://www.w3.org/1999/xlink"><defs><style type="text/css"></style></defs><path d="M778.743 927.946V852.57h-77.03V928l77.03-0.054z m114.97 0.054C912.571 928 928 912.571 928 893.715V852.57H854.17v75.375l39.543 0.054zM397.716 171.429v226.288H171.43V171.43h226.287zM438.86 96H130.285C111.43 96 96 111.429 96 130.285V438.86c0 18.858 15.429 34.286 34.285 34.286h308.573c18.857 0 34.286-15.429 34.286-34.286V130.285C473.144 111.43 457.716 96 438.86 96zM246.859 284.574c0 20.829 16.885 37.714 37.714 37.714 20.83 0 37.715-16.885 37.715-37.714 0-20.83-16.886-37.715-37.715-37.715-20.829 0-37.714 16.886-37.714 37.715zM852.57 171.429v226.288H626.284V171.43H852.57zM893.713 96H585.14c-18.857 0-34.285 15.429-34.285 34.285V438.86c0 18.858 15.429 34.286 34.285 34.286h308.573c18.858 0 34.286-15.429 34.286-34.286V130.285C927.999 111.43 912.57 96 893.713 96z m-192 188.574c0 20.829 16.885 37.714 37.714 37.714 20.829 0 37.714-16.885 37.714-37.714 0-20.83-16.885-37.715-37.714-37.715-20.83 0-37.715 16.886-37.715 37.715zM397.715 626.283V852.57H171.43V626.283h226.287z m41.144-75.43H130.285C111.43 550.854 96 566.284 96 585.14v308.574C96 912.571 111.429 928 130.285 928h308.573c18.858 0 34.286-15.429 34.286-34.286V585.14c0-18.856-15.428-34.285-34.284-34.285zM246.859 739.427c0 20.83 16.885 37.715 37.714 37.715 20.83 0 37.715-16.886 37.715-37.715 0-20.829-16.886-37.714-37.715-37.714-20.829 0-37.714 16.885-37.714 37.714z m646.854-188.572H851.66v150.858H776.23V550.854H585.14c-18.857 0-34.285 15.429-34.285 34.285v308.574c0 18.858 15.429 34.286 34.285 34.286h41.144V701.71h75.428v75.43H928V585.139c0-18.856-15.429-34.285-34.287-34.285z" p-id="1539"></path></svg>